<svg version="1.1" id="Layer_1" xmlns="http://www.w3.org/2000/svg" xmlns:xlink="http://www.w3.org/1999/xlink" x="0px" y="0px"
	 width="100%" viewBox="0 0 800 1008" enable-background="new 0 0 800 1008" xml:space="preserve">
<path fill="#000000" opacity="1.000000" stroke="none" 
	d="
M401.304749,786.113708 
	C399.933685,798.283569 398.567596,810.001831 397.237732,821.724243 
	C396.966095,824.118408 396.424561,825.892395 393.312622,825.511169 
	C381.928711,824.116333 370.409393,823.635010 359.186523,821.172974 
	C347.733917,818.660583 342.219391,811.327698 343.694733,801.557434 
	C344.440063,796.621704 347.546326,793.242065 351.583344,790.138489 
	C347.041168,786.031982 343.420471,781.921570 343.572296,775.582275 
	C343.798096,766.156799 349.192902,759.930603 358.606293,758.691833 
	C367.137604,757.569092 375.520996,759.194763 383.947296,759.946350 
	C388.911316,760.389160 393.836670,761.293091 398.803711,761.665466 
	C402.257721,761.924377 404.005249,762.925964 403.435913,766.840393 
	C402.527649,773.085083 402.007019,779.386292 401.304749,786.113708 
M360.503632,773.118164 
	C357.883942,779.286682 359.353516,782.987732 365.645386,784.330566 
	C371.157837,785.506958 376.838593,785.906067 382.452423,786.587097 
	C383.599976,786.726257 385.042816,786.762756 385.404755,785.361267 
	C386.363037,781.650818 387.605011,777.697083 386.444733,774.062317 
	C385.413757,770.832458 381.490112,771.751770 378.955811,771.608276 
	C372.993286,771.270569 366.771484,768.231079 360.503632,773.118164 
M383.687866,803.441162 
	C383.509064,801.448853 384.571838,798.916565 381.312622,798.309204 
	C375.916351,797.303711 370.489899,796.666565 365.004211,797.189941 
	C361.873932,797.488586 359.740814,799.099365 359.360168,802.441101 
	C358.969421,805.871521 360.442078,808.125366 363.646667,809.429565 
	C367.100189,810.834961 370.798767,810.782410 374.377350,811.388977 
	C382.270630,812.726807 382.564240,812.403748 383.687866,803.441162 
z"/>
<path fill="#000000" opacity="1.000000" stroke="none" 
	d="
M695.092407,462.809601 
	C703.221008,462.463318 710.867249,462.150604 718.511353,461.791443 
	C720.950500,461.676849 723.127869,462.203583 723.043274,465.073181 
	C722.700256,476.708344 725.364197,488.320618 723.543213,499.937286 
	C720.865051,517.023376 709.115234,527.341858 692.682373,527.378906 
	C675.476135,527.417603 663.630676,517.259583 660.784912,499.853790 
	C659.115540,489.643433 659.757324,479.268127 658.838928,468.999542 
	C658.550781,465.777496 660.072693,464.684814 663.228699,464.552155 
	C673.694641,464.112152 684.149902,463.420349 695.092407,462.809601 
M709.636780,478.758270 
	C698.168762,477.290131 686.779114,479.828918 675.326233,479.445160 
	C672.532898,479.351532 672.292114,481.573151 672.434631,483.692963 
	C672.724487,488.004791 672.837097,492.351196 673.491699,496.611237 
	C674.967468,506.215912 682.362427,511.880890 692.741089,511.689575 
	C702.384766,511.511810 709.681702,505.412842 710.600037,496.276001 
	C711.163269,490.671997 711.138000,485.000580 709.636780,478.758270 
z"/>
<path fill="#000000" opacity="1.000000" stroke="none" 
	d="
M124.726654,507.354065 
	C113.349724,506.249481 102.431915,505.151520 91.509636,504.099945 
	C87.612595,503.724762 85.671089,502.537292 86.437767,497.795837 
	C87.946495,488.465271 88.100800,478.904602 89.790825,469.616608 
	C94.438309,444.075073 122.383293,433.560486 141.895615,449.880157 
	C150.632614,457.187531 153.367050,467.282532 152.890182,478.144348 
	C152.490067,487.258087 151.050674,496.322815 150.224442,505.423157 
	C149.944122,508.510681 148.881775,509.869019 145.523773,509.442780 
	C138.765411,508.585022 131.966293,508.048248 124.726654,507.354065 
M101.237411,483.219269 
	C101.382286,485.557861 99.169655,488.968353 103.600899,489.474487 
	C113.984383,490.660553 124.390297,491.651886 134.790283,492.690613 
	C136.782761,492.889557 138.471619,492.550018 138.641357,489.999084 
	C138.971344,485.039856 140.082031,480.146088 139.681107,475.122192 
	C138.927490,465.679169 132.127258,459.018463 122.419884,458.340973 
	C112.252121,457.631378 104.356560,463.144928 102.469658,472.492859 
	C101.815582,475.733215 101.659500,479.074097 101.237411,483.219269 
z"/>
<path fill="#000000" opacity="1.000000" stroke="none" 
	d="
M566.676636,737.298462 
	C562.113892,731.750305 557.528687,726.656616 553.496765,721.157349 
	C545.514221,710.269592 546.225220,699.853027 555.382080,689.983948 
	C561.626404,683.253967 569.085876,678.453430 578.047668,676.013245 
	C582.804016,674.718140 583.511475,677.861694 583.927124,681.083862 
	C584.295227,683.937378 586.836182,687.601440 580.884949,688.463501 
	C574.624207,689.370544 569.404358,692.823364 565.281250,697.682556 
	C561.219849,702.469238 561.412415,706.898682 566.195007,712.384460 
	C569.638367,703.240112 575.905823,697.353149 585.116394,694.653687 
	C590.019714,693.216553 594.687500,693.835999 599.289917,695.601685 
	C609.426636,699.490479 615.504089,709.940918 614.277405,721.216370 
	C613.152039,731.559875 603.559326,740.630249 591.623108,742.637085 
	C591.911255,746.331909 586.184692,753.849548 582.674805,754.408020 
	C580.786621,754.708496 580.063599,753.198425 579.132385,752.103455 
	C575.030579,747.280701 570.976074,742.417847 566.676636,737.298462 
M578.526550,727.961182 
	C584.437012,733.425659 591.788269,733.163696 596.781372,727.310608 
	C601.198547,722.132690 600.670654,715.258728 595.525940,710.961121 
	C591.006348,707.185791 585.161987,707.529785 580.133362,711.867249 
	C575.317322,716.021362 574.607849,721.350037 578.526550,727.961182 
z"/>
<path fill="#000000" opacity="1.000000" stroke="none" 
	d="
M89.625946,566.865601 
	C85.319550,553.567383 85.326698,553.598694 98.192619,550.660583 
	C113.750587,547.107788 129.289337,543.470825 144.847656,539.919495 
	C151.902069,538.309326 151.914352,538.363159 153.631882,545.489685 
	C155.104401,551.599609 155.104431,551.599609 152.346878,554.121460 
	C161.450012,565.225281 162.504532,577.211670 155.233658,586.934631 
	C148.542252,595.882690 133.742294,599.580200 123.123108,594.956909 
	C112.403458,590.289856 107.638107,578.669312 110.337189,563.647949 
	C103.373062,563.988159 96.961479,567.477844 89.625946,566.865601 
M121.233994,568.792908 
	C120.963516,574.275330 122.800873,578.545654 128.163055,580.756775 
	C133.123474,582.802246 139.796890,581.559998 143.419998,577.797180 
	C147.026093,574.052063 147.527634,569.645020 145.767212,564.893188 
	C144.051437,560.261841 139.972427,557.846069 134.283707,558.028870 
	C127.287621,558.253662 123.237854,561.358032 121.233994,568.792908 
z"/>
<path fill="#000000" opacity="1.000000" stroke="none" 
	d="
M299.802490,284.052429 
	C293.684631,266.915253 287.794342,250.106323 281.618408,233.403046 
	C280.174805,229.498642 280.815826,227.364563 284.933624,226.625671 
	C288.432983,225.997742 291.891418,221.557510 295.372864,226.575531 
	C304.332123,216.171082 316.944550,213.479019 327.667267,219.566544 
	C337.503326,225.150681 342.905914,239.338470 339.433899,250.466888 
	C335.825134,262.033539 324.780518,268.275543 309.672302,266.745728 
	C311.518158,271.982056 313.113708,276.973602 315.046326,281.831024 
	C316.392059,285.213409 315.736725,287.211731 312.065552,288.011627 
	C311.096558,288.222717 310.173981,288.646515 309.229706,288.971497 
	C302.486298,291.292480 302.486267,291.292419 299.802490,284.052429 
M304.495758,250.923264 
	C309.833771,256.258820 315.014709,257.071442 320.467712,253.428421 
	C325.383575,250.144272 326.652435,244.160614 323.847931,237.488235 
	C321.293793,231.411438 315.392151,228.625641 309.236328,230.590942 
	C303.223846,232.510483 299.995239,238.494308 301.716278,244.871429 
	C302.226532,246.762146 303.265930,248.510086 304.495758,250.923264 
z"/>
<path fill="#000000" opacity="1.000000" stroke="none" 
	d="
M628.998535,357.205536 
	C635.763367,360.714050 640.950989,357.392334 645.951050,354.010315 
	C653.677795,348.784058 661.215759,343.279510 668.868286,337.942535 
	C674.422729,334.068817 674.453247,334.100616 678.381836,339.772888 
	C679.425049,341.279144 680.388306,342.841400 681.449280,344.334564 
	C682.656372,346.033447 682.407654,347.314514 680.670776,348.524902 
	C670.015198,355.950684 659.882263,364.210846 648.516479,370.508118 
	C636.747131,377.028992 625.176880,374.384766 616.185303,364.150513 
	C606.542664,353.175293 604.214539,341.365936 609.821167,331.185974 
	C610.935059,329.163422 612.235107,327.105194 613.901794,325.547699 
	C624.654907,315.499115 637.486877,308.322296 649.234131,299.513855 
	C652.900330,302.621735 654.672241,306.454529 657.138000,309.739197 
	C659.012085,312.235809 656.912170,313.265869 655.293213,314.409149 
	C647.265137,320.078339 639.224976,325.730377 631.195374,331.397339 
	C630.107849,332.164886 629.003906,332.922180 627.995239,333.786621 
	C618.956116,341.533600 619.199097,349.521698 628.998535,357.205536 
z"/>
<path fill="#000000" opacity="1.000000" stroke="none" 
	d="
M566.673828,262.605194 
	C563.477295,268.274872 561.072205,273.978607 556.561646,278.411285 
	C549.703003,285.151550 541.777954,287.575317 532.356995,285.265411 
	C518.453735,281.856445 508.584534,271.957245 507.408386,259.890045 
	C506.947418,255.160110 507.722290,250.509995 509.831573,246.292404 
	C515.267029,235.423889 520.967957,224.688492 526.486328,213.860901 
	C527.785400,211.312103 529.313293,211.123871 531.701294,212.433563 
	C544.025879,219.192871 542.565918,216.306793 536.889404,227.622971 
	C532.858765,235.658157 528.407471,243.491287 524.610474,251.632233 
	C520.879944,259.630737 522.591919,265.550262 528.993835,269.374054 
	C536.622681,273.930756 543.668762,272.079742 548.317261,263.808533 
	C553.536621,254.521683 558.351929,245.008102 563.372498,235.608902 
	C564.145447,234.161957 564.640259,232.507736 566.403198,231.273346 
	C570.429077,232.239883 573.992249,234.707886 577.698242,236.784744 
	C580.065857,238.111557 578.600647,239.889938 577.756165,241.496063 
	C574.114929,248.421600 570.490173,255.355835 566.673828,262.605194 
z"/>
<path fill="#000000" opacity="1.000000" stroke="none" 
	d="
M672.857361,414.784302 
	C666.956299,423.991974 661.250732,432.891296 654.625000,443.225800 
	C652.243774,436.985016 650.343445,432.300476 648.691040,427.530029 
	C648.019348,425.590820 649.520569,424.086426 650.523315,422.562622 
	C654.246399,416.905090 657.959167,411.240814 662.179321,404.812103 
	C655.523438,403.213531 649.828735,401.421112 643.996704,400.572968 
	C638.887451,399.829956 635.848816,397.662964 634.569458,392.606476 
	C633.808105,389.597382 632.371826,386.759033 631.242920,383.853943 
	C633.803040,382.130035 635.844360,383.561768 637.783691,384.031372 
	C646.679016,386.185486 655.589294,388.329346 664.354675,390.944519 
	C668.152100,392.077454 670.238342,391.068451 672.191589,387.942566 
	C676.869873,380.455902 681.739746,373.088867 686.541443,365.679474 
	C687.517944,364.172607 688.271973,362.466827 689.899048,361.488831 
	C696.315369,368.252533 697.196106,375.953400 692.537781,383.132721 
	C689.832764,387.301605 687.205200,391.520691 684.258789,396.164886 
	C688.505798,398.715820 693.030640,399.705017 697.248047,399.908264 
	C708.519592,400.451508 710.383850,408.591400 712.592651,417.220367 
	C707.909973,417.885071 703.997070,415.633942 699.872620,414.803528 
	C694.175232,413.656372 688.488098,412.244934 682.993042,410.370514 
	C678.149780,408.718414 674.965332,409.705261 672.857361,414.784302 
z"/>
<path fill="#000000" opacity="1.000000" stroke="none" 
	d="
M228.446198,712.140259 
	C233.356735,715.225830 236.615540,712.846680 239.855148,709.479126 
	C241.560089,707.706787 242.702560,703.593384 245.631012,705.063904 
	C249.217545,706.864868 252.077438,710.188965 255.068680,713.045898 
	C255.818237,713.761841 254.924057,714.909180 254.251328,715.676453 
	C240.418365,731.453674 226.585358,747.230957 212.733795,762.991943 
	C212.423050,763.345459 211.895676,763.508545 211.318039,763.849854 
	C207.710968,762.074219 205.165497,758.909241 202.160919,756.346191 
	C199.834167,754.361328 201.798172,752.826416 203.089127,751.355103 
	C208.472794,745.219482 213.886887,739.110535 219.257019,732.963135 
	C220.554321,731.478027 221.726166,729.883301 223.657974,727.456909 
	C216.691086,727.456909 210.515244,726.609741 204.673752,727.646423 
	C194.781708,729.402039 191.505112,721.324890 184.302750,716.668884 
	C192.757065,714.400635 199.925278,714.483276 206.939713,714.128723 
	C212.457932,713.849792 213.593231,711.297668 213.695602,706.653259 
	C213.871582,698.669189 214.344406,690.691223 214.731491,682.712585 
	C214.785202,681.605835 214.538452,680.335510 215.728256,679.571228 
	C224.716095,683.436035 228.393539,688.771912 228.331436,697.766724 
	C228.299240,702.429016 228.313217,707.091553 228.446198,712.140259 
z"/>
<path fill="#000000" opacity="1.000000" stroke="none" 
	d="
M150.083557,424.140991 
	C155.446442,419.569885 156.498947,413.908875 155.722092,407.627411 
	C155.231354,403.659454 157.841782,401.053619 163.264053,400.063812 
	C167.453979,399.298950 167.323196,402.934509 167.896545,405.157043 
	C170.797180,416.400940 164.167572,431.760925 154.128036,437.671539 
	C145.428207,442.793427 134.322662,441.994873 126.009964,435.649567 
	C117.958839,429.504028 114.524025,419.070679 117.182312,408.835480 
	C121.181641,393.436890 134.631042,385.573059 149.188049,389.984894 
	C153.075943,391.163239 154.614822,392.750977 152.885773,397.109100 
	C149.822754,404.829468 147.342117,412.783112 144.703613,420.667847 
	C144.150040,422.322174 143.184479,423.972839 143.603561,425.912537 
	C146.126648,426.599640 147.954391,425.449463 150.083557,424.140991 
M139.799072,406.568024 
	C140.257858,404.754700 141.831619,402.433258 138.047974,402.470886 
	C134.102249,402.510132 129.760147,406.747406 128.592392,411.620697 
	C127.477745,416.272339 129.172104,420.097321 134.009781,422.651550 
	C135.893616,417.479523 137.748901,412.385895 139.799072,406.568024 
z"/>
<path fill="#000000" opacity="1.000000" stroke="none" 
	d="
M392.102783,219.237869 
	C395.467041,230.137817 395.480103,230.224197 384.845612,231.832779 
	C376.326935,233.121338 367.771545,234.166931 359.139435,235.332916 
	C360.899872,240.477982 365.460266,243.192703 370.956055,242.488449 
	C374.775421,241.999023 378.310608,240.810623 381.465698,238.308456 
	C386.229645,234.530426 388.106415,239.936584 390.782532,241.892776 
	C393.831116,244.121231 391.049835,246.078979 389.427582,247.440948 
	C380.237793,255.156174 369.659088,256.793457 358.543701,253.057922 
	C348.164520,249.569824 343.056274,241.499893 341.976654,230.815002 
	C340.918671,220.344803 348.342560,209.451126 358.915497,205.742905 
	C371.086578,201.474167 383.045471,204.873734 389.559021,214.510025 
	C390.484924,215.879822 391.171021,217.411713 392.102783,219.237869 
M368.419647,215.944443 
	C363.786316,215.951721 359.972351,217.495926 357.874878,221.899765 
	C356.973114,223.793076 356.989685,225.852219 359.790039,225.609192 
	C365.931976,225.076187 372.112030,224.582626 378.281464,222.866287 
	C376.829803,217.980438 373.513519,216.350311 368.419647,215.944443 
z"/>
<path fill="#000000" opacity="1.000000" stroke="none" 
	d="
M178.757111,700.739380 
	C163.599884,696.083069 154.905792,682.814453 157.786301,669.143677 
	C159.040726,663.190247 162.361069,658.560242 167.077026,654.766418 
	C170.106476,652.329346 172.236679,652.820312 174.475250,655.873230 
	C179.989731,663.393738 185.684967,670.781799 191.325653,678.209351 
	C191.812347,678.850281 192.433228,679.389282 193.240433,680.236633 
	C196.073334,677.194214 196.168015,673.927979 195.014099,670.520203 
	C193.269028,665.366577 189.849319,661.696960 184.872040,659.426025 
	C181.442825,657.861389 180.637863,653.502441 182.890091,648.790405 
	C184.573395,645.268616 187.252762,647.287170 189.335007,648.024658 
	C204.103958,653.255188 217.204163,676.569214 202.950378,692.245178 
	C196.600357,699.228699 188.711014,702.450256 178.757111,700.739380 
M173.677200,684.905579 
	C177.103256,687.693970 180.773804,688.825745 185.881989,686.407532 
	C181.409439,680.536255 177.202515,675.013611 172.888672,669.350647 
	C168.277100,674.798828 168.460709,678.150757 173.677200,684.905579 
z"/>
<path fill="#000000" opacity="1.000000" stroke="none" 
	d="
M511.592896,741.683472 
	C517.758057,733.030762 525.924500,728.447632 536.097900,727.581116 
	C547.220032,726.633728 556.165649,732.066589 560.848999,742.365051 
	C565.291748,752.134521 563.306824,762.615601 555.554077,770.324097 
	C542.553955,783.250122 523.213867,781.172424 514.730469,766.075378 
	C512.702576,762.466553 512.739624,760.401367 516.889282,758.361633 
	C525.796997,753.983215 534.443665,749.073853 543.551270,744.192078 
	C540.596619,740.323608 537.134949,739.792480 533.464417,740.623352 
	C528.791626,741.681152 524.857117,744.047180 522.129639,748.180176 
	C519.558472,752.076477 516.475037,752.373413 511.321320,749.218994 
	C507.387939,746.811401 510.656616,744.401855 511.592896,741.683472 
M547.696350,761.086731 
	C548.842102,758.436401 550.747498,755.858887 548.264465,752.193604 
	C542.020142,755.550232 535.899536,758.840271 529.573547,762.240784 
	C535.226990,768.326660 540.755432,767.928955 547.696350,761.086731 
z"/>
<path fill="#000000" opacity="1.000000" stroke="none" 
	d="
M193.815765,331.346588 
	C193.662506,335.542999 196.626480,334.560852 198.611877,334.144592 
	C205.978607,332.600098 210.025955,327.426178 211.503769,320.479156 
	C212.911133,313.863312 217.761826,317.052826 221.047745,316.884644 
	C224.852875,316.689911 223.995468,320.047577 223.639252,322.463135 
	C221.455643,337.270844 205.011322,350.371552 191.624268,348.008484 
	C180.665421,346.074036 172.011841,337.485229 170.018707,326.564636 
	C168.250092,316.874237 174.085022,305.212799 183.522919,299.575745 
	C193.086212,293.863800 203.423828,294.816498 212.268356,302.033142 
	C215.106583,304.348999 215.855347,306.269043 213.054382,309.334198 
	C206.551239,316.450714 200.342834,323.836609 193.815765,331.346588 
M189.551895,322.036530 
	C192.763901,318.298065 196.410080,314.902832 198.989838,310.574371 
	C193.246124,307.912750 188.843506,308.948608 185.156372,313.636536 
	C181.650192,318.094391 181.636307,321.778564 185.140091,326.104187 
	C187.178665,325.736694 187.775620,323.738770 189.551895,322.036530 
z"/>
<path fill="#000000" opacity="1.000000" stroke="none" 
	d="
M673.965942,567.182556 
	C675.253662,560.266357 676.453186,553.770020 677.708069,546.973633 
	C673.988586,546.200745 671.765137,547.974976 670.181396,550.230042 
	C667.121704,554.586731 665.079102,559.636169 667.305176,564.761963 
	C669.460938,569.725647 667.687988,572.153442 663.484741,574.047729 
	C662.152466,574.648193 661.136292,575.970886 659.225403,575.787170 
	C654.304871,570.501282 653.997498,563.817688 654.785522,557.175720 
	C656.094971,546.138000 660.667847,536.925781 671.836243,532.790955 
	C682.104736,528.989258 691.237854,531.699829 698.894836,539.129272 
	C706.687317,546.690002 708.063843,559.657043 702.617065,570.223083 
	C697.641418,579.875305 687.787354,584.785706 676.760498,583.202393 
	C672.984619,582.660278 670.946045,581.143616 672.073669,576.898315 
	C672.882141,573.854675 673.290771,570.704834 673.965942,567.182556 
M685.092834,558.409241 
	C684.441895,561.899902 683.295654,565.338989 683.700989,568.994629 
	C689.937500,568.469360 693.235046,565.256104 693.821411,559.393127 
	C694.421387,553.394226 692.380310,549.932495 687.020447,548.413269 
	C686.424438,551.486877 685.833618,554.533752 685.092834,558.409241 
z"/>
<path fill="#000000" opacity="1.000000" stroke="none" 
	d="
M249.398071,245.122375 
	C263.585968,239.550507 276.516632,244.056793 282.936951,256.514771 
	C289.148376,268.567413 284.864899,282.418182 272.502625,290.254486 
	C255.953506,300.744873 236.972015,293.548462 232.379135,274.974670 
	C230.224655,266.261871 233.230377,258.921143 238.932388,252.468491 
	C241.726624,249.306412 245.241898,247.073776 249.398071,245.122375 
M261.608490,256.598358 
	C260.624084,256.465973 259.640381,256.225830 258.655121,256.219025 
	C253.222305,256.181488 248.859222,259.151581 247.098618,264.016571 
	C245.428314,268.632050 247.469513,275.043640 251.795929,278.771271 
	C255.699249,282.134369 260.624176,282.546417 265.209991,279.953857 
	C269.203369,277.696228 271.355011,274.145996 271.126587,269.730377 
	C270.822662,263.855438 267.870911,259.383087 261.608490,256.598358 
z"/>
<path fill="#000000" opacity="1.000000" stroke="none" 
	d="
M616.067078,699.028931 
	C609.275513,693.876221 602.883057,688.788086 596.230042,684.067017 
	C593.095215,681.842651 593.182800,680.113708 595.348328,677.230530 
	C601.431885,669.130920 601.335754,669.029907 609.501648,675.102112 
	C613.912476,678.382019 618.221863,681.799316 622.658386,685.043396 
	C628.045837,688.982727 632.835999,688.733154 636.394775,684.484070 
	C640.234985,679.899048 639.931213,673.382141 635.141235,669.287292 
	C629.703613,664.638977 624.022888,660.237305 618.163940,656.133728 
	C614.631226,653.659424 614.748352,651.747925 617.254578,648.574158 
	C623.134827,641.127747 623.043884,640.952881 630.742676,646.734436 
	C640.065063,653.735168 649.226318,660.951904 658.602234,667.878967 
	C661.786682,670.231689 662.186646,672.371216 659.346741,675.059387 
	C656.697083,677.567444 655.965820,682.757019 650.598206,681.223145 
	C643.704285,702.892883 631.547668,709.234131 616.067078,699.028931 
z"/>
<path fill="#000000" opacity="1.000000" stroke="none" 
	d="
M169.956299,628.896484 
	C180.588409,623.727356 181.315765,624.086060 185.137390,635.003540 
	C185.930756,637.269958 185.315994,638.415344 183.340927,639.337952 
	C170.520905,645.326477 157.699005,651.311401 144.914215,657.374451 
	C142.600479,658.471741 141.159988,658.031006 140.169891,655.688904 
	C139.262894,653.543335 138.339081,651.395752 137.258575,649.335083 
	C136.068329,647.065186 135.951324,645.200806 139.413742,643.980103 
	C132.916626,639.882202 128.688065,634.747986 126.716515,627.929382 
	C124.427345,620.012329 126.689430,612.552429 133.686096,607.679504 
	C142.473160,601.559509 152.684982,598.107605 162.220566,593.381165 
	C163.584381,592.705139 164.886017,592.774719 165.640503,594.249390 
	C167.230576,597.357483 168.865005,600.457458 170.197311,603.678162 
	C171.217529,606.144409 168.989990,606.773560 167.384827,607.539001 
	C161.073730,610.548645 154.715485,613.460083 148.421371,616.504395 
	C141.387177,619.906738 139.299484,624.145142 141.708267,629.819702 
	C144.048279,635.332214 149.922241,637.617554 156.472473,635.119690 
	C160.971268,633.403992 165.245972,631.100586 169.956299,628.896484 
z"/>
<path fill="#000000" opacity="1.000000" stroke="none" 
	d="
M315.164612,747.648926 
	C322.650665,745.706909 329.242126,747.441772 335.322083,751.444275 
	C341.700195,755.643127 343.994904,762.597412 341.447815,769.264709 
	C338.912933,775.900085 332.629639,779.292664 324.889771,778.075500 
	C319.775269,777.271301 314.948456,775.423828 310.086365,773.721130 
	C309.177521,773.402893 308.208862,773.255188 307.054535,772.977478 
	C305.248260,777.923218 307.462158,780.962708 311.330597,782.885376 
	C315.528046,784.971436 320.052887,786.349304 324.823395,785.154053 
	C329.908630,783.879883 329.067505,787.848450 329.726929,790.470093 
	C330.446716,793.331848 331.092316,796.516785 326.880981,796.937927 
	C314.932922,798.132874 303.905884,795.794922 295.380402,786.706970 
	C290.502441,781.507202 290.192291,774.966187 292.275024,768.432007 
	C294.899017,760.199829 297.925995,752.096741 300.600281,743.879700 
	C301.619537,740.747986 303.434967,739.754089 306.167267,741.345520 
	C309.245209,743.138489 314.801178,741.534363 315.164612,747.648926 
M312.264160,758.688171 
	C310.746582,760.722656 308.635925,762.986267 312.413605,764.629517 
	C315.434143,765.943481 318.678986,766.845032 321.907776,767.543945 
	C324.414734,768.086609 326.594055,767.059753 327.434326,764.432068 
	C328.250824,761.878662 327.239410,759.727478 325.006195,758.464966 
	C321.049469,756.227966 316.937592,755.315979 312.264160,758.688171 
z"/>
<path fill="#000000" opacity="1.000000" stroke="none" 
	d="
M661.280151,583.543579 
	C663.977417,585.724548 663.639709,587.438538 661.434326,589.467529 
	C657.175720,593.385559 654.459412,598.296570 652.847656,603.852417 
	C652.245972,605.926392 651.985413,607.938599 654.121033,609.142944 
	C656.533386,610.503174 657.783875,608.615784 658.884216,606.909180 
	C661.136841,603.415283 663.207153,599.799377 665.553772,596.371399 
	C670.017761,589.850281 675.260742,587.499329 681.091858,589.177551 
	C687.989929,591.162842 692.328369,596.701599 692.176514,604.555420 
	C691.982239,614.597656 687.789978,623.189392 681.251282,630.695312 
	C679.666016,632.515198 678.229675,632.769897 676.214783,631.008362 
	C670.718750,626.203430 670.563416,625.507080 674.871704,619.593323 
	C677.342224,616.202148 679.466248,612.633728 679.746643,608.306763 
	C679.864746,606.484863 680.062744,604.414429 677.819763,603.678345 
	C675.858032,603.034546 674.696655,604.592224 673.780762,605.935181 
	C670.784912,610.327698 668.150269,614.985107 664.935852,619.204834 
	C661.877258,623.220032 657.731812,625.712341 652.369812,624.553528 
	C646.719421,623.332458 642.802551,619.986206 641.238953,614.308594 
	C640.160278,610.392029 640.381653,606.384705 641.186096,602.445801 
	C642.576416,595.638367 645.718689,589.622742 649.848267,584.097534 
	C654.696838,577.610535 655.436768,577.568604 661.280151,583.543579 
z"/>
<path fill="#000000" opacity="1.000000" stroke="none" 
	d="
M267.970245,734.650024 
	C265.938110,734.421753 264.280304,734.354126 262.625305,734.244507 
	C260.708954,734.117493 258.566498,736.388428 256.997253,734.458679 
	C254.919113,731.903076 253.329788,728.924622 251.727921,726.019043 
	C251.044571,724.779419 251.976105,723.783203 253.115631,723.229553 
	C254.309540,722.649536 255.535461,722.105103 256.796997,721.699341 
	C266.299896,718.642944 278.852661,723.459839 285.785583,732.786743 
	C292.699219,742.087646 292.964813,752.680481 286.520142,762.081787 
	C280.138153,771.391663 269.523132,775.258606 258.407349,771.816467 
	C248.700211,768.810425 241.064011,763.249817 238.464096,752.727173 
	C237.232712,747.743469 238.140808,746.861633 243.120331,746.593811 
	C247.903625,746.336609 251.156860,746.723450 252.945908,752.685669 
	C255.343201,760.674927 266.737549,761.978760 272.309296,755.657532 
	C279.160553,747.884644 277.589050,739.611511 267.970245,734.650024 
z"/>
<path fill="#000000" opacity="1.000000" stroke="none" 
	d="
M153.644943,367.185364 
	C158.985046,367.486084 163.784271,369.424469 169.904617,368.271149 
	C166.180344,363.294006 162.854782,358.846100 159.524857,354.401459 
	C158.327057,352.802673 157.139191,351.195862 155.911911,349.619904 
	C149.276550,341.099487 149.372253,339.396729 157.110992,330.570618 
	C159.564178,330.923645 160.315826,333.230591 161.542221,334.838959 
	C169.921066,345.827423 178.092117,356.975647 186.560471,367.893707 
	C188.988358,371.023956 189.464096,373.658844 186.849991,376.705414 
	C186.423920,377.201996 186.084229,377.815857 185.855057,378.431488 
	C183.785904,383.990021 180.138092,385.365662 174.223328,384.381073 
	C161.112625,382.198578 147.865128,380.840881 134.678940,379.104858 
	C133.074570,378.893646 131.350662,378.808868 130.030518,377.184906 
	C131.157623,373.213348 133.661591,369.880249 135.833817,366.387360 
	C136.795029,364.841705 138.308716,365.111664 139.861389,365.337067 
	C144.303497,365.981934 148.763275,366.505157 153.644943,367.185364 
z"/>
<path fill="#000000" opacity="1.000000" stroke="none" 
	d="
M608.553833,292.447540 
	C618.274658,287.613281 627.846863,283.278442 636.989197,278.173737 
	C642.007996,275.371460 645.535645,275.676575 648.844116,280.259399 
	C649.795044,281.576599 651.460571,282.364502 651.789185,284.253265 
	C651.133179,286.223999 649.183716,286.597382 647.613037,287.380920 
	C624.979980,298.671204 602.333069,309.933746 579.688538,321.200989 
	C570.859375,325.594086 568.802307,324.931061 562.811584,315.185059 
	C577.989380,307.645538 593.107666,300.135620 608.553833,292.447540 
z"/>
<path fill="#000000" opacity="1.000000" stroke="none" 
	d="
M222.602448,302.382080 
	C213.091949,291.219696 203.890060,280.257721 194.476440,269.480713 
	C192.002548,266.648499 191.590637,264.913422 194.912201,262.351898 
	C203.977798,255.360748 201.879471,254.735855 209.211182,263.449310 
	C220.565445,276.943451 232.038818,290.337311 243.448822,303.784637 
	C244.297363,304.784668 245.042725,305.872253 245.962265,307.085693 
	C243.777206,310.898682 239.956802,312.841949 237.001816,315.636047 
	C235.290802,317.253906 233.967255,315.723267 232.861343,314.434448 
	C229.502594,310.520233 226.172928,306.581055 222.602448,302.382080 
z"/>
<path fill="#000000" opacity="1.000000" stroke="none" 
	d="
M603.241699,264.281677 
	C592.457581,278.223846 581.763245,291.796844 571.366516,305.594025 
	C568.695679,309.138489 566.833496,309.318207 563.463440,306.521271 
	C555.813232,300.172211 555.614685,300.284729 561.648010,292.416321 
	C571.757080,279.232330 582.006348,266.155609 592.076904,252.942474 
	C594.042969,250.362885 595.738098,249.941666 598.141418,252.178986 
	C599.473694,253.419266 600.902588,254.628342 602.474304,255.524826 
	C606.761780,257.970490 606.857727,260.745361 603.241699,264.281677 
z"/>
<path fill="#000000" opacity="1.000000" stroke="none" 
	d="
M428.145477,216.232727 
	C420.240112,216.990128 416.711578,220.624146 416.360474,228.113144 
	C416.056580,234.595779 415.816315,241.082581 415.652588,247.570175 
	C415.567322,250.949051 414.032837,252.094879 410.655457,252.070175 
	C400.673584,251.997162 400.569183,252.099045 400.773651,242.269241 
	C401.012421,230.789886 401.540314,219.315735 401.699402,207.835938 
	C401.763824,203.187180 403.583344,201.353378 408.141357,202.434769 
	C411.371216,203.201050 415.835602,200.888351 417.122681,206.411575 
	C420.639404,205.225479 423.549011,203.119827 427.074677,202.739487 
	C432.339569,202.171509 433.440735,202.940170 433.098572,208.253311 
	C432.893402,211.438858 434.770630,216.270737 428.145477,216.232727 
z"/>
<path fill="#000000" opacity="1.000000" stroke="none" 
	d="
M513.753784,787.408569 
	C513.939636,788.111206 514.141541,788.499634 514.032043,788.754211 
	C512.125732,793.186584 502.483765,795.017334 499.018494,791.388000 
	C496.347595,794.839600 493.174347,797.663940 489.163422,799.488403 
	C486.873657,800.529968 485.346008,800.221680 484.550140,797.688171 
	C484.152252,796.421448 483.819153,795.117249 483.261688,793.920959 
	C481.464691,790.064148 481.363556,787.517700 486.421539,785.755676 
	C492.303406,783.706726 494.430267,778.490479 492.701599,772.401978 
	C490.798889,765.700623 488.633881,759.065979 486.343872,752.485596 
	C485.275177,749.414734 486.090546,747.817993 489.098114,746.886230 
	C500.764435,743.271912 498.563904,742.022949 502.309570,753.009216 
	C506.166260,764.321228 509.859924,775.688782 513.753784,787.408569 
z"/>
<path fill="#000000" opacity="1.000000" stroke="none" 
	d="
M644.612061,644.436096 
	C639.446106,641.662659 634.665894,638.940430 629.746643,636.498291 
	C626.791809,635.031250 626.464417,633.296143 627.988586,630.540222 
	C634.123352,619.447937 631.609985,620.417236 642.192932,625.969055 
	C652.365723,631.305725 662.291992,637.113098 672.475891,642.427612 
	C675.863831,644.195679 676.180054,645.836304 674.344116,648.997009 
	C668.674255,658.758057 671.041870,658.821777 660.739990,653.195068 
	C655.478699,650.321533 650.206482,647.467834 644.612061,644.436096 
z"/>
<path fill="#000000" opacity="1.000000" stroke="none" 
	d="
M466.740448,259.260803 
	C459.963348,258.753967 456.720673,255.711975 456.681091,250.244659 
	C456.644958,245.254395 459.830048,241.526245 464.609039,240.964966 
	C468.951965,240.454880 473.651398,243.817062 474.664001,248.158707 
	C475.807861,253.063156 473.085754,257.074951 466.740448,259.260803 
z"/>
<path fill="#000000" opacity="1.000000" stroke="none" 
	d="
M429.412994,767.034668 
	C430.641693,760.896545 434.273438,757.672607 439.105286,758.062012 
	C443.425049,758.410217 446.885712,761.756836 447.332428,766.018066 
	C447.919434,771.618103 444.947296,775.573608 439.644745,776.249390 
	C434.030975,776.964844 430.546600,773.956970 429.412994,767.034668 
z"/>
<path fill="#000000" opacity="1.000000" stroke="none" 
	d="
M693.924927,658.625366 
	C693.676636,659.480957 693.553284,659.968628 693.350891,660.421021 
	C691.057007,665.549133 687.073669,668.066956 683.020996,666.965332 
	C679.174194,665.919617 676.329102,661.687744 676.878235,657.828064 
	C677.555237,653.068787 682.067993,648.824890 686.242676,649.021484 
	C690.732849,649.232910 693.385132,652.379700 693.924927,658.625366 
z"/>
</svg>