<svg width="249" height="578" viewBox="0 0 249 578" fill="none" xmlns="http://www.w3.org/2000/svg">
<g filter="url(#filter0_iif_103_272)">
<path fill-rule="evenodd" clip-rule="evenodd" d="M100.766 70.2947C98.5008 61.0292 93.5167 41.7639 91.7042 38.827C89.4387 35.1557 99.0672 0.541181 142.679 18.3729C159.714 27.8375 156.201 41.9829 150.968 63.0537C150.111 66.5023 149.208 70.1364 148.342 73.9659C156.461 76.0638 173.49 81.9377 176.662 88.6509L197.051 96.5178L223.105 147.391L229.902 153.684L226.503 161.027L234.999 174.663C235.754 177.635 236.812 183.893 234.999 185.152C234.299 185.638 234.302 187.428 234.306 189.745C234.316 194.925 234.33 202.745 226.503 204.557L185.724 209.277C186.101 217.494 187.876 235.081 191.954 239.696C191.765 249.486 191.954 269.486 194.22 271.164C197.759 275.882 188.125 319.872 177.794 339.869C176.473 363.644 172.131 412.664 165.334 418.538C167.755 442.077 163.924 456.97 150.608 485.669C163.531 490.593 163.536 499.839 158.537 520.808L163.068 547.031C158.845 561.341 141.546 572.73 131.917 555.947C130.759 549.617 129.81 541.186 129.745 532.346L119.457 513.466L93.9695 493.536L52.6234 406.475V391.266C49.0363 389.343 44.0143 384.028 52.6234 378.154C53.9449 347.036 58.2872 283.751 65.0838 279.555L58.2872 281.653C57.532 268.891 57.834 241.689 65.0838 234.976C64.572 230.711 63.9809 224.542 63.6329 218.193C46.5586 216.795 12.7498 209.277 14.1091 190.397C12.2212 181.306 11.3905 159.978 23.1713 147.391C28.2689 139.174 38.5774 121.168 39.0305 114.874C39.5969 107.007 50.9246 82.3573 75.8455 83.9307C80.1877 78.1616 91.2511 67.3578 100.766 70.2947ZM119.457 339.869L100.766 394.937L117.188 424.831L119.457 339.869ZM65.0838 193.543L52.6234 190.397L62.2518 180.432L65.0838 193.543Z" fill="#25155C"/>
</g>
<g filter="url(#filter1_ii_103_272)">
<path fill-rule="evenodd" clip-rule="evenodd" d="M103.479 86.3367C101.479 77.5034 97.0795 59.1367 95.4795 56.3367C93.4795 52.8367 101.979 19.8367 140.479 36.8367C155.518 45.8599 152.416 59.3455 147.797 79.4334C147.041 82.7212 146.244 86.1858 145.479 89.8367C152.646 91.8367 167.679 97.4367 170.479 103.837L188.479 111.337L211.479 159.837L217.479 165.837L214.479 172.837L221.979 185.837C222.646 188.67 223.579 194.637 221.979 195.837C221.361 196.3 221.364 198.006 221.368 200.216C221.376 205.154 221.388 212.609 214.479 214.337L178.479 218.837C178.813 226.67 180.379 243.437 183.979 247.837C183.813 257.17 183.979 276.237 185.979 277.837C189.103 282.334 180.599 324.273 171.479 343.337C170.313 366.003 166.479 412.737 160.479 418.337C162.617 440.778 159.234 454.976 147.479 482.337C158.887 487.031 158.892 495.846 154.479 515.837L158.479 540.837C154.75 554.479 139.479 565.337 130.979 549.337C129.956 543.302 129.119 535.264 129.061 526.837L119.979 508.837L97.4792 489.837L60.9792 406.837V392.337C57.8125 390.503 53.3792 385.437 60.9792 379.837C62.1459 350.17 65.9791 289.837 71.9791 285.837L65.9791 287.837C65.3125 275.67 65.5791 249.737 71.9791 243.337C71.5273 239.27 71.0055 233.389 70.6983 227.337C55.6253 226.003 25.7791 218.837 26.9791 200.837C25.3125 192.17 24.5792 171.837 34.9792 159.837C39.4793 152.003 48.5795 134.837 48.9795 128.837C49.4795 121.337 59.4795 97.8367 81.4795 99.3367C85.3128 93.8367 95.0795 83.5368 103.479 86.3367ZM119.979 343.337L103.479 395.837L117.977 424.337L119.979 343.337ZM71.9791 203.837L60.9792 200.837L69.4791 191.337L71.9791 203.837Z" fill="black"/>
</g>
<path d="M147.479 482.337C159.234 454.976 162.617 440.778 160.479 418.337C166.479 412.737 170.313 366.003 171.479 343.337C180.599 324.273 189.103 282.334 185.979 277.837C183.979 276.237 183.813 257.17 183.979 247.837C180.379 243.437 178.813 226.67 178.479 218.837L214.479 214.337C221.388 212.609 221.376 205.154 221.368 200.216C221.364 198.006 221.361 196.3 221.979 195.837C223.579 194.637 222.646 188.67 221.979 185.837L214.479 172.837L217.479 165.837L211.479 159.837L188.479 111.337L170.479 103.837C167.679 97.4367 152.646 91.8367 145.479 89.8367C146.244 86.1858 147.041 82.7212 147.797 79.4334C152.416 59.3455 155.518 45.8599 140.479 36.8367C101.979 19.8367 93.4795 52.8367 95.4795 56.3367C97.0795 59.1367 101.479 77.5034 103.479 86.3367C95.0795 83.5368 85.3128 93.8367 81.4795 99.3367C59.4795 97.8367 49.4795 121.337 48.9795 128.837C48.5795 134.837 39.4793 152.003 34.9792 159.837C24.5792 171.837 25.3125 192.17 26.9791 200.837C25.7791 218.837 55.6253 226.003 70.6983 227.337M147.479 482.337C158.887 487.031 158.892 495.846 154.479 515.837L158.479 540.837C154.75 554.479 139.479 565.337 130.979 549.337C129.956 543.302 129.119 535.264 129.061 526.837M147.479 482.337C132.785 486.773 128.932 507.8 129.061 526.837M147.479 482.337L117.977 424.337M129.061 526.837L119.979 508.837L97.4792 489.837L60.9792 406.837V392.337C57.8125 390.503 53.3792 385.437 60.9792 379.837C62.1459 350.17 65.9791 289.837 71.9791 285.837L65.9791 287.837C65.3125 275.67 65.5791 249.737 71.9791 243.337C71.5273 239.27 71.0055 233.389 70.6983 227.337M71.9791 203.837L60.9792 200.837L69.4791 191.337M71.9791 203.837L69.4791 191.337M71.9791 203.837C70.2635 207.758 70.2123 217.761 70.6983 227.337M69.4791 191.337V159.837M117.977 424.337L103.479 395.837L119.979 343.337L117.977 424.337Z" stroke="black"/>
<defs>
<filter id="filter0_iif_103_272" x="0.2" y="0.49956" width="248.6" height="576.6" filterUnits="userSpaceOnUse" color-interpolation-filters="sRGB">
<feFlood flood-opacity="0" result="BackgroundImageFix"/>
<feBlend mode="normal" in="SourceGraphic" in2="BackgroundImageFix" result="shape"/>
<feColorMatrix in="SourceAlpha" type="matrix" values="0 0 0 0 0 0 0 0 0 0 0 0 0 0 0 0 0 0 127 0" result="hardAlpha"/>
<feOffset dy="11"/>
<feGaussianBlur stdDeviation="2"/>
<feComposite in2="hardAlpha" operator="arithmetic" k2="-1" k3="1"/>
<feColorMatrix type="matrix" values="0 0 0 0 1 0 0 0 0 1 0 0 0 0 1 0 0 0 0.25 0"/>
<feBlend mode="normal" in2="shape" result="effect1_innerShadow_103_272"/>
<feColorMatrix in="SourceAlpha" type="matrix" values="0 0 0 0 0 0 0 0 0 0 0 0 0 0 0 0 0 0 127 0" result="hardAlpha"/>
<feOffset dy="-11"/>
<feGaussianBlur stdDeviation="2"/>
<feComposite in2="hardAlpha" operator="arithmetic" k2="-1" k3="1"/>
<feColorMatrix type="matrix" values="0 0 0 0 1 0 0 0 0 1 0 0 0 0 1 0 0 0 0.25 0"/>
<feBlend mode="normal" in2="effect1_innerShadow_103_272" result="effect2_innerShadow_103_272"/>
<feGaussianBlur stdDeviation="6.4" result="effect3_foregroundBlur_103_272"/>
</filter>
<filter id="filter1_ii_103_272" x="25.5" y="27.5" width="197.862" height="534.3" filterUnits="userSpaceOnUse" color-interpolation-filters="sRGB">
<feFlood flood-opacity="0" result="BackgroundImageFix"/>
<feBlend mode="normal" in="SourceGraphic" in2="BackgroundImageFix" result="shape"/>
<feColorMatrix in="SourceAlpha" type="matrix" values="0 0 0 0 0 0 0 0 0 0 0 0 0 0 0 0 0 0 127 0" result="hardAlpha"/>
<feOffset dy="11"/>
<feGaussianBlur stdDeviation="2"/>
<feComposite in2="hardAlpha" operator="arithmetic" k2="-1" k3="1"/>
<feColorMatrix type="matrix" values="0 0 0 0 1 0 0 0 0 1 0 0 0 0 1 0 0 0 0.25 0"/>
<feBlend mode="normal" in2="shape" result="effect1_innerShadow_103_272"/>
<feColorMatrix in="SourceAlpha" type="matrix" values="0 0 0 0 0 0 0 0 0 0 0 0 0 0 0 0 0 0 127 0" result="hardAlpha"/>
<feOffset dy="-11"/>
<feGaussianBlur stdDeviation="2"/>
<feComposite in2="hardAlpha" operator="arithmetic" k2="-1" k3="1"/>
<feColorMatrix type="matrix" values="0 0 0 0 1 0 0 0 0 1 0 0 0 0 1 0 0 0 0.25 0"/>
<feBlend mode="normal" in2="effect1_innerShadow_103_272" result="effect2_innerShadow_103_272"/>
</filter>
</defs>
</svg>
